<?xml version="1.0" encoding="UTF-8"?>
<svg version="1.1" xmlns="http://www.w3.org/2000/svg" width="512" height="512">
<path d="M0 0 C0.71352631 -0.0049649 1.42705261 -0.00992981 2.16220093 -0.01504517 C4.49958299 -0.02952658 6.83689702 -0.03644829 9.17431641 -0.04199219 C10.38732359 -0.04623325 10.38732359 -0.04623325 11.62483597 -0.05056 C15.91200326 -0.06550231 20.1991374 -0.07476071 24.48632812 -0.07910156 C28.86085805 -0.08455181 33.23507132 -0.1085206 37.60950279 -0.13707352 C41.01926483 -0.15593246 44.42895447 -0.16091785 47.83876419 -0.16243744 C49.44831684 -0.1654169 51.05786974 -0.17328036 52.66736984 -0.18662262 C67.61727696 -0.3016202 82.2087022 1.38524844 96.52587891 5.91113281 C97.76869629 6.29628052 97.76869629 6.29628052 99.03662109 6.68920898 C121.32729868 13.80211714 141.03883759 25.30228605 158.22509766 41.17285156 C159.97089264 42.76820102 161.73375993 44.26049014 163.58837891 45.72363281 C167.26669108 48.91150336 170.31567419 52.40390331 173.40087891 56.16113281 C174.16529297 57.08796875 174.92970703 58.01480469 175.71728516 58.96972656 C203.70728762 93.69796026 211.10284805 132.74713073 210.80645466 176.29659605 C210.78108996 180.66601701 210.77907186 185.03545451 210.77435303 189.40493774 C210.76202454 197.64206329 210.72934336 205.87897114 210.68895507 214.11600173 C210.64391789 223.50928894 210.62217082 232.90258771 210.60217333 242.29595637 C210.56059907 261.58447097 210.49044885 280.87278426 210.40087891 300.16113281 C211.01044434 300.45141357 211.62000977 300.74169434 212.24804688 301.04077148 C230.16550034 310.36524347 241.43286424 333.07728369 247.39306641 351.33300781 C249.87617418 360.76496758 250.70484348 369.73534192 250.72314453 379.47607422 C250.73307434 380.76044876 250.74300415 382.0448233 250.75323486 383.36811829 C250.77920652 386.85762766 250.79231489 390.34706066 250.80125618 393.83665133 C250.80715571 396.02262523 250.81537151 398.20857905 250.82426453 400.39454269 C250.85152593 407.25186219 250.87090884 414.10913483 250.87866831 420.96650469 C250.88764366 428.85135545 250.92284028 436.73551522 250.9806695 444.62015593 C251.02398413 450.74022713 251.04408071 456.86010426 251.04675055 462.98032701 C251.0488386 466.62539761 251.06048135 470.26981472 251.09638977 473.91472244 C251.13565971 477.97856638 251.12674252 482.04096734 251.11376953 486.10498047 C251.1321991 487.29898972 251.15062866 488.49299896 251.1696167 489.72319031 C251.10330883 496.36425866 250.2010456 500.78433182 246.3719101 506.26076317 C241.39174174 511.0623923 236.93602577 512.66060298 230.09909248 512.670084 C229.39472524 512.67649696 228.69035799 512.68290991 227.96464628 512.6895172 C225.61030183 512.70608726 223.25697904 512.69428121 220.90261841 512.68252563 C219.19531711 512.68856847 217.48802122 512.69634734 215.7807349 512.70571077 C211.09358087 512.7262913 206.40673245 512.72190211 201.71955323 512.71334958 C196.66284518 512.7084188 191.60621107 512.72643877 186.54953003 512.74142456 C176.64465685 512.7669331 166.73989208 512.77050415 156.83499159 512.76582403 C148.78459346 512.76225902 140.73422826 512.76575408 132.68383408 512.77427292 C130.96565515 512.77605849 130.96565515 512.77605849 129.21276554 512.77788012 C126.88582985 512.78030361 124.55889417 512.78273188 122.23195849 512.78516488 C100.4061502 512.80692155 78.5804037 512.8025882 56.75459193 512.79039519 C36.78593891 512.78005626 16.81748101 512.80256816 -3.1511334 512.84059162 C-23.65323195 512.87933176 -44.15523815 512.89586337 -64.65737355 512.88834512 C-76.16844612 512.8845185 -87.67935262 512.88952129 -99.19039536 512.9177742 C-108.98985001 512.94158265 -118.78903636 512.94443341 -128.58849464 512.92019387 C-133.58819059 512.90840267 -138.58739556 512.90625399 -143.58705902 512.93019867 C-148.16551188 512.95187122 -152.74306254 512.94576582 -157.32147278 512.9176753 C-158.97619018 512.91236871 -160.63097777 512.91715467 -162.2856264 512.93314703 C-171.34081493 513.01458 -178.72330021 512.86828514 -185.59912109 506.16113281 C-190.58212559 500.09498537 -190.16853792 494.06311393 -190.11669922 486.44311523 C-190.1237085 485.17378143 -190.13071777 483.90444763 -190.13793945 482.59664917 C-190.15611506 479.12680082 -190.14912418 475.65743044 -190.13642311 472.18757415 C-190.12624122 468.53513737 -190.13570533 464.88273943 -190.14196777 461.2303009 C-190.14923932 455.08615861 -190.13968018 448.94220874 -190.12060547 442.7980957 C-190.09894415 435.74028655 -190.10581113 428.68294164 -190.12791109 421.62514418 C-190.14620762 415.53386184 -190.1485515 409.44271743 -190.13815641 403.35141641 C-190.13198514 399.72799225 -190.13090436 396.10478418 -190.14430237 392.48137474 C-190.25060943 359.09292675 -183.89142006 333.02268367 -160.59912109 308.16113281 C-152.49101299 300.16113281 -152.49101299 300.16113281 -149.59912109 300.16113281 C-149.60188647 299.36343538 -149.60465185 298.56573795 -149.60750103 297.74386787 C-149.67399312 278.25987623 -149.72351403 258.77590748 -149.75455761 239.29182625 C-149.76997225 229.86915109 -149.79095735 220.44655205 -149.82543945 211.02392578 C-149.85550842 202.80326083 -149.87473527 194.58265106 -149.88138658 186.36193264 C-149.88526946 182.0162954 -149.89427948 177.6708159 -149.91631126 173.32522964 C-150.08598564 138.51061932 -150.08598564 138.51061932 -146.59912109 124.16113281 C-146.35655579 123.14367981 -146.11399048 122.12622681 -145.86407471 121.07794189 C-145.26711864 118.69986362 -144.5880345 116.37361053 -143.84912109 114.03613281 C-143.59235596 113.20758789 -143.33559082 112.37904297 -143.07104492 111.52539062 C-135.95813677 89.23471304 -124.45796786 69.52317413 -108.58740234 52.33691406 C-106.99205289 50.59111908 -105.49976377 48.82825179 -104.03662109 46.97363281 C-79.72891242 18.92627665 -36.7622494 0.19639903 0 0 Z M-1.33349609 41.04003906 C-2.51946884 41.15506523 -2.51946884 41.15506523 -3.72940063 41.27241516 C-31.30028105 44.26460232 -54.97474206 57.01394233 -74.59912109 76.16113281 C-75.56205078 77.03125 -75.56205078 77.03125 -76.54443359 77.91894531 C-98.08905009 97.86024151 -108.21507779 129.09527774 -109.51533127 157.63100052 C-109.85138323 167.77848455 -109.7175851 177.94333068 -109.69677734 188.09472656 C-109.69434749 190.78613762 -109.69343785 193.47754864 -109.69248962 196.16896057 C-109.6894039 202.49021965 -109.68122841 208.81146106 -109.67114013 215.13271242 C-109.6587853 223.04908352 -109.65337446 230.96545759 -109.64794922 238.88183594 C-109.63826082 252.9749486 -109.61822032 267.0680228 -109.59912109 281.16113281 C-83.19912109 280.83113281 -56.79912109 280.50113281 -29.59912109 280.16113281 C-27.27250793 261.39903454 -27.27250793 261.39903454 -34.41162109 255.22363281 C-35.41580078 254.57652344 -36.41998047 253.92941406 -37.45458984 253.26269531 C-53.93723563 242.24696434 -63.901205 219.07125367 -67.65039062 200.28027344 C-68.84463136 193.52974712 -68.94092165 186.86568139 -68.97021484 180.02441406 C-68.98375755 178.04528267 -68.98375755 178.04528267 -68.99757385 176.02616882 C-69.01392763 173.25366789 -69.02174029 170.48128585 -69.0246582 167.70874023 C-69.03006609 164.1748392 -69.06790092 160.642068 -69.11340237 157.10848713 C-69.15043472 153.70546934 -69.15168833 150.30262625 -69.15771484 146.89941406 C-69.17724716 145.64091141 -69.19677948 144.38240875 -69.21690369 143.08576965 C-69.18015506 135.9197868 -68.75173714 130.46671731 -63.59912109 125.16113281 C-57.91023483 120.69959031 -52.98234602 120.58519208 -45.91552734 120.62207031 C-44.90119125 120.6102774 -43.88685516 120.5984845 -42.84178162 120.58633423 C-39.61490414 120.55118512 -36.38867401 120.54191822 -33.16162109 120.53613281 C-29.93833411 120.519733 -26.71533262 120.49756103 -23.49217224 120.46450806 C-21.4921349 120.4450464 -19.4919675 120.43552469 -17.49183655 120.43759155 C-9.33211691 120.37572157 -2.07204797 119.62715996 4.40087891 114.16113281 C8.37656858 109.70087155 9.66434512 105.54658336 10.40087891 99.66113281 C11.36364643 92.03848718 13.49504617 87.63418195 19.33837891 82.66113281 C24.90444475 79.93913131 31.41249867 80.37373334 37.40087891 81.16113281 C42.50550253 82.93324485 46.20556809 86.05450059 48.67822266 90.94628906 C49.61172953 93.80736147 49.95550216 96.61495364 50.33837891 99.59863281 C51.2560924 106.43049994 52.87888702 111.26365907 58.29541016 115.71972656 C65.42766373 120.53365679 72.64264435 120.29293962 80.98681641 120.30175781 C83.07276486 120.32008155 85.15870268 120.33965145 87.24462891 120.36035156 C90.51206567 120.38931472 93.77881317 120.41113325 97.04638672 120.41162109 C100.21464251 120.41496616 103.3813337 120.44956829 106.54931641 120.48925781 C107.51727142 120.48218811 108.48522644 120.47511841 109.48251343 120.46783447 C115.97096427 120.58348049 120.51358024 121.74765185 125.40087891 126.16113281 C130.53026939 132.34340887 129.98266788 138.82083013 129.93212891 146.59082031 C129.93595581 147.89455597 129.93978271 149.19829163 129.94372559 150.54153442 C129.94960633 153.30034401 129.94111875 156.05863398 129.92236328 158.81738281 C129.89979473 162.30170512 129.91293488 165.78479103 129.93612862 169.26906872 C130.09915835 198.10359895 125.20702976 222.49832946 106.40087891 245.16113281 C105.43988281 246.32515625 105.43988281 246.32515625 104.45947266 247.51269531 C100.01228338 252.71703815 96.14402506 255.8537732 90.40087891 260.16113281 C90.40087891 266.76113281 90.40087891 273.36113281 90.40087891 280.16113281 C116.80087891 280.49113281 143.20087891 280.82113281 170.40087891 281.16113281 C170.46109259 259.13204627 170.46109259 259.13204627 170.50138664 237.10294819 C170.51241084 229.21598676 170.52634046 221.32906827 170.55175781 213.44213867 C170.57189226 207.19141835 170.58464207 200.94073063 170.5890559 194.68997878 C170.59162992 191.38999671 170.59864245 188.09012784 170.61233902 184.79017067 C170.74797456 150.71797264 168.50315407 118.4082728 147.40087891 90.16113281 C146.78728516 89.32582031 146.17369141 88.49050781 145.54150391 87.62988281 C126.48059276 62.74042859 98.67060332 46.3187845 67.64013672 41.44360352 C56.30179683 40.01333103 44.9078054 39.9748054 33.49902344 39.97583008 C30.80078108 39.97365291 28.10295524 39.95544848 25.40478516 39.93652344 C16.44618788 39.90694735 7.58611995 40.16734814 -1.33349609 41.04003906 Z M24.33837891 149.41113281 C11.62896064 157.62413809 0.24246054 159.46283083 -14.59912109 159.78613281 C-16.05617391 159.82438247 -17.5132058 159.86343808 -18.97021484 159.90332031 C-22.51299035 159.99855787 -26.0559254 160.08286179 -29.59912109 160.16113281 C-30.05244115 184.96781347 -28.19161501 205.11827699 -10.22412109 223.91113281 C-6.37377536 227.64803682 -2.21734982 230.61598559 2.22900391 233.59863281 C5.91815982 236.25270182 7.9753157 238.88444318 9.40087891 243.16113281 C9.42276704 244.59508076 9.3830727 246.03043112 9.3046875 247.46240234 C7.97917913 276.14297255 10.3746777 301.03188394 19.96337891 327.97363281 C20.18978813 328.61005959 20.41619736 329.24648636 20.64946747 329.90219879 C23.43862033 337.70503271 26.35411541 345.45538644 29.40087891 353.16113281 C30.06087891 353.16113281 30.72087891 353.16113281 31.40087891 353.16113281 C34.69869892 344.82042481 37.83150296 336.42351228 40.83837891 327.97363281 C41.06363251 327.34111477 41.28888611 326.70859673 41.52096558 326.05691147 C50.42531352 300.86727742 52.92082875 277.2761502 51.39356995 250.46569824 C51.14813351 245.17612931 51.41027906 241.75908348 54.40087891 237.16113281 C55.94384766 235.47363281 55.94384766 235.47363281 57.58837891 234.16113281 C58.50876953 233.41476563 58.50876953 233.41476563 59.44775391 232.65332031 C61.39132144 231.16843472 63.36136878 229.72608113 65.33837891 228.28613281 C78.86169956 218.18280252 87.03464357 204.91340995 89.65087891 188.22363281 C90.75006041 178.89023194 90.57233965 169.54384575 90.40087891 160.16113281 C89.52987549 160.15178711 88.65887207 160.14244141 87.76147461 160.1328125 C84.4638579 160.08824125 81.16743227 160.02638968 77.87036133 159.95361328 C76.45576388 159.92575364 75.04102088 159.90436912 73.6262207 159.89013672 C58.85535451 159.7328325 45.17184494 156.6947399 33.21728516 147.47753906 C29.5946145 144.85207667 27.67262518 147.17892293 24.33837891 149.41113281 Z M-36.59912109 320.16113281 C-44.8949125 335.68229093 -52.7734243 351.39949426 -60.59912109 367.16113281 C-58.25476631 369.5054876 -56.58159542 369.99872671 -53.44677734 371.04052734 C-51.8350061 371.58086105 -51.8350061 371.58086105 -50.19067383 372.1321106 C-49.02608643 372.51551605 -47.86149902 372.89892151 -46.66162109 373.29394531 C-44.87510132 373.88899368 -44.87510132 373.88899368 -43.05249023 374.49606323 C-40.5314934 375.33437932 -38.00986791 376.17037224 -35.48681641 377.00244141 C-32.24977935 378.07012002 -29.01543596 379.14569225 -25.78193665 380.22403145 C-22.70127762 381.25069314 -19.61893058 382.27225135 -16.53662109 383.29394531 C-15.37203369 383.68139923 -14.20744629 384.06885315 -13.00756836 384.4680481 C-11.39579712 384.99892532 -11.39579712 384.99892532 -9.75146484 385.54052734 C-8.80263428 385.854263 -7.85380371 386.16799866 -6.8762207 386.49124146 C-4.67493713 387.25520844 -4.67493713 387.25520844 -2.59912109 387.16113281 C-4.69300711 379.11221285 -7.14971717 371.22821389 -9.79443359 363.34472656 C-10.38380203 361.57730858 -10.38380203 361.57730858 -10.9850769 359.77418518 C-11.80893745 357.30560466 -12.63424399 354.83750629 -13.4609375 352.36987305 C-14.73054951 348.57944076 -15.99525866 344.78741791 -17.25927734 340.99511719 C-18.06237816 338.59072523 -18.86575366 336.186425 -19.66943359 333.78222656 C-20.04858917 332.64587265 -20.42774475 331.50951874 -20.81838989 330.33872986 C-21.34431229 328.77053246 -21.34431229 328.77053246 -21.88085938 327.1706543 C-22.18935822 326.24896957 -22.49785706 325.32728485 -22.81570435 324.37767029 C-23.54808568 322.16020934 -23.54808568 322.16020934 -24.59912109 320.16113281 C-28.55912109 320.16113281 -32.51912109 320.16113281 -36.59912109 320.16113281 Z M85.40087891 320.16113281 C75.90598397 347.86039087 75.90598397 347.86039087 66.52587891 375.59863281 C66.19910156 376.56607422 65.87232422 377.53351563 65.53564453 378.53027344 C65.24625 379.39716797 64.95685547 380.2640625 64.65869141 381.15722656 C64.4126416 381.89126709 64.1665918 382.62530762 63.91308594 383.3815918 C63.30867851 385.17282959 63.30867851 385.17282959 63.40087891 387.16113281 C70.76699085 385.22195193 78.02122017 383.06051154 85.24853516 380.65722656 C86.22704941 380.33327408 87.20556366 380.00932159 88.21372986 379.67555237 C90.2586468 378.99725955 92.30304092 378.31738861 94.34692383 377.63598633 C97.4845235 376.59159455 100.62521462 375.55688279 103.76611328 374.52246094 C105.76044881 373.85963563 107.75459649 373.19624477 109.74853516 372.53222656 C110.68802505 372.22385361 111.62751495 371.91548065 112.59547424 371.59776306 C113.89339149 371.16204735 113.89339149 371.16204735 115.2175293 370.7175293 C115.97932999 370.46454575 116.74113068 370.21156219 117.52601624 369.95091248 C119.59555322 369.217888 119.59555322 369.217888 121.40087891 367.16113281 C118.14642269 360.62694495 114.88888124 354.09430221 111.62915039 347.56274414 C110.51970795 345.33881857 109.41098249 343.11453517 108.30297852 340.88989258 C106.71378197 337.69942245 105.12204383 334.51023185 103.52978516 331.32128906 C103.03184952 330.3202565 102.53391388 329.31922394 102.02088928 328.28785706 C101.56048752 327.366978 101.10008575 326.44609894 100.62573242 325.49731445 C100.2193605 324.68235001 99.81298859 323.86738556 99.39430237 323.02772522 C98.53933658 321.2022582 98.53933658 321.2022582 97.40087891 320.16113281 C95.38123692 320.08869228 93.35920767 320.07736093 91.33837891 320.09863281 C90.23365234 320.10765625 89.12892578 320.11667969 87.99072266 320.12597656 C87.13607422 320.13757813 86.28142578 320.14917969 85.40087891 320.16113281 Z M-134.68896484 340.84863281 C-163.32116076 375.51174116 -149.59912109 435.92061348 -149.59912109 472.16113281 C-30.79912109 472.16113281 88.00087891 472.16113281 210.40087891 472.16113281 C217.5421893 400.46675486 217.5421893 400.46675486 191.71337891 336.97363281 C177.83951273 323.80292554 161.78249296 320.60620821 143.40087891 320.16113281 C144.54060839 322.62242897 145.68761305 325.07999009 146.83837891 327.53613281 C147.40673462 328.75852661 147.40673462 328.75852661 147.98657227 330.00561523 C150.41808882 335.17021383 152.95664692 340.26233409 155.62492371 345.30780029 C157.19300591 348.27567788 158.74005294 351.25436071 160.28762817 354.23297119 C161.06389057 355.71231653 161.85024748 357.18641404 162.64718628 358.65472412 C167.86307321 368.27666686 171.17473959 375.94823424 169.40087891 387.16113281 C168.05861312 391.3856803 166.11758412 394.10322658 162.31789017 396.44475842 C155.93939045 399.58047298 149.48384766 402.05469978 142.74755859 404.30883789 C141.62741867 404.68995728 140.50727875 405.07107666 139.35319519 405.46374512 C135.67909788 406.71092355 132.00131677 407.94672368 128.32275391 409.18066406 C127.04575616 409.61046002 125.7688223 410.04044586 124.49195099 410.47061729 C117.80664908 412.72237817 111.11840294 414.96516662 104.42773438 417.20092773 C98.22679597 419.27335284 92.03335553 421.36715507 85.84290195 423.47066766 C80.49635334 425.28619493 75.14443645 427.08524752 69.78827024 428.87219924 C66.60304928 429.93524182 63.42134459 431.00666141 60.24337006 432.09131813 C56.69254751 433.30113209 53.13369122 434.48370934 49.57177734 435.66040039 C48.0297892 436.19563576 48.0297892 436.19563576 46.45664978 436.74168396 C34.03968363 440.76991845 23.11587288 439.78388728 10.92285156 435.56860352 C9.76322906 435.18649216 8.60360657 434.8043808 7.40884399 434.41069031 C4.2715609 433.37202262 1.14123125 432.31512915 -1.98667479 431.24862695 C-5.28271349 430.12922159 -8.58625873 429.03238298 -11.88882446 427.93241882 C-17.42588478 426.08455777 -22.95731899 424.22063183 -28.48535156 422.34594727 C-34.85603546 420.18563416 -41.2338067 418.04746978 -47.6161083 415.92174464 C-54.4475649 413.64617373 -61.27358153 411.35461952 -68.09811068 409.05836844 C-70.05057705 408.4025986 -72.00400775 407.74977687 -73.95768356 407.09762001 C-77.60856924 405.87785833 -81.25325652 404.64022254 -84.89746094 403.40063477 C-86.50445862 402.86655502 -86.50445862 402.86655502 -88.1439209 402.32168579 C-95.43335556 399.8193661 -102.02144586 397.18990121 -107.09912109 391.22363281 C-110.17882804 384.87216533 -109.6352885 376.47562875 -107.58398438 369.91390991 C-106.15247178 366.67876917 -104.58161528 363.57269861 -102.91162109 360.45410156 C-102.33452393 359.32208817 -101.75742676 358.19007477 -101.1628418 357.02375793 C-99.64377493 354.05558866 -98.10194009 351.10197876 -96.54650879 348.15289307 C-94.95851235 345.12862025 -93.4007854 342.08885405 -91.84130859 339.04980469 C-89.11404646 333.74066281 -86.36175075 328.44534542 -83.58618164 323.16130066 C-82.52536503 321.38341803 -82.52536503 321.38341803 -82.59912109 320.16113281 C-102.96443137 319.3465204 -120.5964502 326.03268312 -134.68896484 340.84863281 Z " fill="#B6AAF9" transform="translate(225.59912109375,-0.1611328125)"/>
</svg>
